<svg xmlns="http://www.w3.org/2000/svg" viewBox="0 0 64 64" role="img" aria-label="De QuaterniXXI a Notion">
  <defs>
    <linearGradient id="bg" x1="8" y1="8" x2="56" y2="56" gradientUnits="userSpaceOnUse">
      <stop stop-color="#6d5dfc"/>
      <stop offset="1" stop-color="#00c2ff"/>
    </linearGradient>
  </defs>
  <rect width="64" height="64" rx="14" fill="#111318"/>
  <rect x="10" y="12" width="27" height="36" rx="4" fill="url(#bg)"/>
  <rect x="15" y="19" width="17" height="3" rx="1.5" fill="#fff" opacity=".9"/>
  <rect x="15" y="27" width="13" height="3" rx="1.5" fill="#fff" opacity=".75"/>
  <rect x="15" y="35" width="18" height="3" rx="1.5" fill="#fff" opacity=".75"/>
  <path d="M36 25h11l-4-4 3-3 9 9-9 9-3-3 4-4H36v-4Z" fill="#fff"/>
  <rect x="39" y="16" width="15" height="32" rx="3" fill="#f5f5f5"/>
  <path d="M43 39V24h3l5 8v-8h3v15h-3l-5-8v8h-3Z" fill="#111318"/>
</svg>
