<svg xmlns="http://www.w3.org/2000/svg" viewBox="0 0 64 64" role="img" aria-label="De QuaterniXXI a Notion">
  <defs>
    <linearGradient id="bg" x1="8" y1="8" x2="56" y2="56" gradientUnits="userSpaceOnUse">
      <stop stop-color="#6d5dfc"/>
      <stop offset="1" stop-color="#00c2ff"/>
    </linearGradient>
  </defs>
  <rect width="64" height="64" rx="14" fill="#111318"/>
  <rect x="10" y="12" width="27" height="36" rx="4" fill="url(#bg)"/>
  <path d="M24 36c-5.2 0-9-3.9-9-9.3s3.8-9.3 9-9.3 9 3.9 9 9.3c0 2-.5 3.8-1.5 5.3l2.2 2.2-2.8 2.8-2.2-2.3c-1.4.8-3 1.3-4.7 1.3Zm0-4.1c2.7 0 4.6-2.1 4.6-5.2s-1.9-5.2-4.6-5.2-4.6 2.1-4.6 5.2 1.9 5.2 4.6 5.2Z" fill="#fff"/>
  <path d="M36 25h11l-4-4 3-3 9 9-9 9-3-3 4-4H36v-4Z" fill="#fff"/>
  <rect x="39" y="16" width="15" height="32" rx="3" fill="#f5f5f5"/>
  <path d="M43 39V24h3l5 8v-8h3v15h-3l-5-8v8h-3Z" fill="#111318"/>
</svg>
